%TF.GenerationSoftware,KiCad,Pcbnew,7.0.10*%
%TF.CreationDate,2024-06-25T16:53:40+01:00*%
%TF.ProjectId,REPLICATE_glue_potentiometer,5245504c-4943-4415-9445-5f676c75655f,rev?*%
%TF.SameCoordinates,Original*%
%TF.FileFunction,Copper,L1,Top*%
%TF.FilePolarity,Positive*%
%FSLAX46Y46*%
G04 Gerber Fmt 4.6, Leading zero omitted, Abs format (unit mm)*
G04 Created by KiCad (PCBNEW 7.0.10) date 2024-06-25 16:53:40*
%MOMM*%
%LPD*%
G01*
G04 APERTURE LIST*
G04 Aperture macros list*
%AMRoundRect*
0 Rectangle with rounded corners*
0 $1 Rounding radius*
0 $2 $3 $4 $5 $6 $7 $8 $9 X,Y pos of 4 corners*
0 Add a 4 corners polygon primitive as box body*
4,1,4,$2,$3,$4,$5,$6,$7,$8,$9,$2,$3,0*
0 Add four circle primitives for the rounded corners*
1,1,$1+$1,$2,$3*
1,1,$1+$1,$4,$5*
1,1,$1+$1,$6,$7*
1,1,$1+$1,$8,$9*
0 Add four rect primitives between the rounded corners*
20,1,$1+$1,$2,$3,$4,$5,0*
20,1,$1+$1,$4,$5,$6,$7,0*
20,1,$1+$1,$6,$7,$8,$9,0*
20,1,$1+$1,$8,$9,$2,$3,0*%
G04 Aperture macros list end*
%TA.AperFunction,SMDPad,CuDef*%
%ADD10R,2.900000X0.800000*%
%TD*%
%TA.AperFunction,SMDPad,CuDef*%
%ADD11RoundRect,0.200000X-0.200000X-0.275000X0.200000X-0.275000X0.200000X0.275000X-0.200000X0.275000X0*%
%TD*%
%TA.AperFunction,SMDPad,CuDef*%
%ADD12R,0.800000X2.900000*%
%TD*%
%TA.AperFunction,SMDPad,CuDef*%
%ADD13RoundRect,0.225000X0.225000X0.250000X-0.225000X0.250000X-0.225000X-0.250000X0.225000X-0.250000X0*%
%TD*%
%TA.AperFunction,SMDPad,CuDef*%
%ADD14RoundRect,0.100000X-0.100000X0.637500X-0.100000X-0.637500X0.100000X-0.637500X0.100000X0.637500X0*%
%TD*%
%TA.AperFunction,ComponentPad*%
%ADD15O,3.240000X2.720000*%
%TD*%
%TA.AperFunction,ComponentPad*%
%ADD16R,1.800000X1.800000*%
%TD*%
%TA.AperFunction,ComponentPad*%
%ADD17C,1.800000*%
%TD*%
%TA.AperFunction,Conductor*%
%ADD18C,0.250000*%
%TD*%
G04 APERTURE END LIST*
D10*
%TO.P,H2,1,1*%
%TO.N,+3V3*%
X44300000Y-35800001D03*
%TD*%
D11*
%TO.P,R1,1*%
%TO.N,JD_DATA_MCU*%
X41875000Y-40150000D03*
%TO.P,R1,2*%
%TO.N,Net-(H1-Pad1)*%
X43525000Y-40150000D03*
%TD*%
D10*
%TO.P,H3,1,1*%
%TO.N,GND*%
X44300000Y-34000000D03*
%TD*%
%TO.P,H4,1,1*%
%TO.N,unconnected-(H4-Pad1)*%
X44300000Y-32200000D03*
%TD*%
D12*
%TO.P,H6,1,1*%
%TO.N,SWDCLK*%
X40350000Y-41650000D03*
%TD*%
D10*
%TO.P,H1,1,1*%
%TO.N,Net-(H1-Pad1)*%
X44300000Y-37600002D03*
%TD*%
D13*
%TO.P,C1,1*%
%TO.N,+3V3*%
X40425000Y-30100000D03*
%TO.P,C1,2*%
%TO.N,GND*%
X38875000Y-30100000D03*
%TD*%
D14*
%TO.P,U1,1,PB7/PB8*%
%TO.N,unconnected-(U1-PB7{slash}PB8-Pad1)*%
X40900000Y-32200000D03*
%TO.P,U1,2,PC14/PB9*%
%TO.N,unconnected-(U1-PC14{slash}PB9-Pad2)*%
X40250000Y-32200000D03*
%TO.P,U1,3,PC15*%
%TO.N,unconnected-(U1-PC15-Pad3)*%
X39600000Y-32200000D03*
%TO.P,U1,4,VDD*%
%TO.N,+3V3*%
X38950000Y-32200000D03*
%TO.P,U1,5,VSS*%
%TO.N,GND*%
X38300000Y-32200000D03*
%TO.P,U1,6,PF2*%
%TO.N,unconnected-(U1-PF2-Pad6)*%
X37650000Y-32200000D03*
%TO.P,U1,7,PA0*%
%TO.N,unconnected-(U1-PA0-Pad7)*%
X37000000Y-32200000D03*
%TO.P,U1,8,PA1*%
%TO.N,unconnected-(U1-PA1-Pad8)*%
X36350000Y-32200000D03*
%TO.P,U1,9,PA2*%
%TO.N,unconnected-(U1-PA2-Pad9)*%
X35700000Y-32200000D03*
%TO.P,U1,10,PA3*%
%TO.N,unconnected-(U1-PA3-Pad10)*%
X35050000Y-32200000D03*
%TO.P,U1,11,PA4*%
%TO.N,unconnected-(U1-PA4-Pad11)*%
X35050000Y-37925000D03*
%TO.P,U1,12,PA5*%
%TO.N,unconnected-(U1-PA5-Pad12)*%
X35700000Y-37925000D03*
%TO.P,U1,13,PA6*%
%TO.N,unconnected-(U1-PA6-Pad13)*%
X36350000Y-37925000D03*
%TO.P,U1,14,PA7*%
%TO.N,unconnected-(U1-PA7-Pad14)*%
X37000000Y-37925000D03*
%TO.P,U1,15,PB0/PB1/PB2/PA8*%
%TO.N,unconnected-(U1-PB0{slash}PB1{slash}PB2{slash}PA8-Pad15)*%
X37650000Y-37925000D03*
%TO.P,U1,16,PA11/PA9*%
%TO.N,unconnected-(U1-PA11{slash}PA9-Pad16)*%
X38300000Y-37925000D03*
%TO.P,U1,17,PA12/PA10*%
%TO.N,unconnected-(U1-PA12{slash}PA10-Pad17)*%
X38950000Y-37925000D03*
%TO.P,U1,18,PA13*%
%TO.N,SWDIO*%
X39600000Y-37925000D03*
%TO.P,U1,19,PA14/PA15*%
%TO.N,SWDCLK*%
X40250000Y-37925000D03*
%TO.P,U1,20,PB3/PB4/PB5/PB6*%
%TO.N,JD_DATA_MCU*%
X40900000Y-37925000D03*
%TD*%
D15*
%TO.P,REF\u002A\u002A,*%
%TO.N,*%
X27500000Y-30500000D03*
X27500000Y-40100000D03*
D16*
%TO.P,REF\u002A\u002A,1*%
%TO.N,N/C*%
X20000000Y-32800000D03*
D17*
%TO.P,REF\u002A\u002A,2*%
X20000000Y-35300000D03*
%TO.P,REF\u002A\u002A,3*%
X20000000Y-37800000D03*
%TD*%
D12*
%TO.P,H5,1,1*%
%TO.N,SWDIO*%
X38550000Y-41649999D03*
%TD*%
D18*
%TO.N,+3V3*%
X41900000Y-34450001D02*
X43250000Y-35800001D01*
X40312501Y-30100000D02*
X40425000Y-30100000D01*
X41900000Y-31575000D02*
X41900000Y-34450001D01*
X40425000Y-30100000D02*
X41900000Y-31575000D01*
X38950000Y-31462501D02*
X40312501Y-30100000D01*
X38950000Y-32200000D02*
X38950000Y-31462501D01*
X43250000Y-35800001D02*
X44300000Y-35800001D01*
%TO.N,GND*%
X42518198Y-33268198D02*
X43250000Y-34000000D01*
X38875000Y-30100000D02*
X39675000Y-29300000D01*
X38300000Y-30675000D02*
X38875000Y-30100000D01*
X39675000Y-29300000D02*
X41275000Y-29300000D01*
X43250000Y-34000000D02*
X44300000Y-34000000D01*
X41275000Y-29300000D02*
X42518198Y-30543198D01*
X42518198Y-30543198D02*
X42518198Y-33268198D01*
X38300000Y-32200000D02*
X38300000Y-30675000D01*
%TO.N,SWDIO*%
X39600000Y-37925000D02*
X39600000Y-40599999D01*
X39600000Y-40599999D02*
X38550000Y-41649999D01*
%TO.N,SWDCLK*%
X40250000Y-41550000D02*
X40350000Y-41650000D01*
X40250000Y-37925000D02*
X40250000Y-41550000D01*
%TO.N,JD_DATA_MCU*%
X40900000Y-39175000D02*
X41875000Y-40150000D01*
X40900000Y-37925000D02*
X40900000Y-39175000D01*
%TO.N,Net-(H1-Pad1)*%
X43525000Y-38375002D02*
X44300000Y-37600002D01*
X43525000Y-40150000D02*
X43525000Y-38375002D01*
%TD*%
M02*
