solid Exported from Blender-3.1.2
facet normal 0.000000 0.000000 -1.000000
outer loop
vertex 8.197718 5.864058 0.807523
vertex 45.291679 5.864063 0.807525
vertex 45.291679 -4.526435 0.807525
endloop
endfacet
facet normal 0.000000 0.000000 -1.000000
outer loop
vertex 8.197718 5.864058 0.807523
vertex 45.291679 -4.526435 0.807525
vertex 8.197718 -4.526441 0.807523
endloop
endfacet
facet normal 0.000000 -1.000000 0.000000
outer loop
vertex 8.197718 -4.526441 0.807523
vertex 45.291679 -4.526435 0.807525
vertex 45.291679 -4.526435 4.276965
endloop
endfacet
facet normal 0.000000 -1.000000 0.000000
outer loop
vertex 8.197718 -4.526441 0.807523
vertex 45.291679 -4.526435 4.276965
vertex 8.197718 -4.526441 4.276964
endloop
endfacet
facet normal -0.000000 0.000000 1.000000
outer loop
vertex 8.197718 -4.526441 4.276964
vertex 45.291679 -4.526435 4.276965
vertex 45.291679 5.864063 4.276965
endloop
endfacet
facet normal -0.000000 0.000000 1.000000
outer loop
vertex 8.197718 -4.526441 4.276964
vertex 45.291679 5.864063 4.276965
vertex 8.197718 5.864058 4.276964
endloop
endfacet
facet normal -0.000000 1.000000 0.000000
outer loop
vertex 8.197718 5.864058 4.276964
vertex 45.291679 5.864063 4.276965
vertex 45.291679 5.864063 0.807525
endloop
endfacet
facet normal -0.000000 1.000000 0.000000
outer loop
vertex 8.197718 5.864058 4.276964
vertex 45.291679 5.864063 0.807525
vertex 8.197718 5.864058 0.807523
endloop
endfacet
facet normal -1.000000 0.000000 0.000000
outer loop
vertex 8.197718 -4.526441 0.807523
vertex 8.197718 -4.526441 4.276964
vertex 8.197718 5.864058 4.276964
endloop
endfacet
facet normal -1.000000 0.000000 0.000000
outer loop
vertex 8.197718 -4.526441 0.807523
vertex 8.197718 5.864058 4.276964
vertex 8.197718 5.864058 0.807523
endloop
endfacet
facet normal 1.000000 0.000000 0.000000
outer loop
vertex 45.291679 -4.526435 4.276965
vertex 45.291679 -4.526435 0.807525
vertex 45.291679 5.864063 0.807525
endloop
endfacet
facet normal 1.000000 0.000000 0.000000
outer loop
vertex 45.291679 -4.526435 4.276965
vertex 45.291679 5.864063 0.807525
vertex 45.291679 5.864063 4.276965
endloop
endfacet
facet normal 0.000000 0.000000 -1.000000
outer loop
vertex 11.616736 13.642616 0.665579
vertex 37.884171 13.642620 0.665580
vertex 37.884171 7.514068 0.665580
endloop
endfacet
facet normal 0.000000 0.000000 -1.000000
outer loop
vertex 11.616736 13.642616 0.665579
vertex 37.884171 7.514068 0.665580
vertex 11.616737 7.514064 0.665579
endloop
endfacet
facet normal 0.000000 -1.000000 0.000000
outer loop
vertex 11.616737 7.514064 0.665579
vertex 37.884171 7.514068 0.665580
vertex 37.884171 7.514068 2.048023
endloop
endfacet
facet normal 0.000000 -1.000000 0.000000
outer loop
vertex 11.616737 7.514064 0.665579
vertex 37.884171 7.514068 2.048023
vertex 11.616736 7.514064 2.048022
endloop
endfacet
facet normal -0.000000 0.000000 1.000000
outer loop
vertex 11.616736 7.514064 2.048022
vertex 37.884171 7.514068 2.048023
vertex 37.884171 13.642620 2.048023
endloop
endfacet
facet normal -0.000000 0.000000 1.000000
outer loop
vertex 11.616736 7.514064 2.048022
vertex 37.884171 13.642620 2.048023
vertex 11.616735 13.642616 2.048022
endloop
endfacet
facet normal -0.000000 1.000000 0.000000
outer loop
vertex 11.616735 13.642616 2.048022
vertex 37.884171 13.642620 2.048023
vertex 37.884171 13.642620 0.665580
endloop
endfacet
facet normal -0.000000 1.000000 -0.000002
outer loop
vertex 11.616735 13.642616 2.048022
vertex 37.884171 13.642620 0.665580
vertex 11.616736 13.642616 0.665579
endloop
endfacet
facet normal -1.000000 -0.000000 -0.000001
outer loop
vertex 11.616737 7.514064 0.665579
vertex 11.616736 7.514064 2.048022
vertex 11.616735 13.642616 2.048022
endloop
endfacet
facet normal -1.000000 -0.000000 -0.000001
outer loop
vertex 11.616737 7.514064 0.665579
vertex 11.616735 13.642616 2.048022
vertex 11.616736 13.642616 0.665579
endloop
endfacet
facet normal 1.000000 0.000000 0.000000
outer loop
vertex 37.884171 7.514068 2.048023
vertex 37.884171 7.514068 0.665580
vertex 37.884171 13.642620 0.665580
endloop
endfacet
facet normal 1.000000 0.000000 0.000000
outer loop
vertex 37.884171 7.514068 2.048023
vertex 37.884171 13.642620 0.665580
vertex 37.884171 13.642620 2.048023
endloop
endfacet
endsolid Exported from Blender-3.1.2
