solid Exported from Blender-3.1.2
facet normal 0.000000 1.000000 0.000000
outer loop
vertex -16.208977 2.702416 7.299992
vertex -16.208977 2.702409 57.034527
vertex 6.533260 2.702408 57.034527
endloop
endfacet
facet normal 0.000000 1.000000 0.000000
outer loop
vertex -16.208977 2.702416 7.299992
vertex 6.533260 2.702408 57.034527
vertex 6.533260 2.702415 7.299992
endloop
endfacet
facet normal 1.000000 0.000000 0.000000
outer loop
vertex 6.533260 2.702415 7.299992
vertex 6.533260 2.702408 57.034527
vertex 6.533260 -1.815915 57.034527
endloop
endfacet
facet normal 1.000000 0.000000 0.000000
outer loop
vertex 6.533260 2.702415 7.299992
vertex 6.533260 -1.815915 57.034527
vertex 6.533260 -1.815908 7.299992
endloop
endfacet
facet normal -0.000000 -1.000000 -0.000000
outer loop
vertex 6.533260 -1.815908 7.299992
vertex 6.533260 -1.815915 57.034527
vertex -16.208977 -1.815914 57.034527
endloop
endfacet
facet normal -0.000000 -1.000000 -0.000000
outer loop
vertex 6.533260 -1.815908 7.299992
vertex -16.208977 -1.815914 57.034527
vertex -16.208977 -1.815907 7.299992
endloop
endfacet
facet normal -1.000000 0.000000 0.000000
outer loop
vertex -16.208977 -1.815907 7.299992
vertex -16.208977 -1.815914 57.034527
vertex -16.208977 2.702409 57.034527
endloop
endfacet
facet normal -1.000000 0.000000 0.000000
outer loop
vertex -16.208977 -1.815907 7.299992
vertex -16.208977 2.702409 57.034527
vertex -16.208977 2.702416 7.299992
endloop
endfacet
facet normal 0.000000 0.000000 -1.000000
outer loop
vertex 6.533260 2.702415 7.299992
vertex 6.533260 -1.815908 7.299992
vertex -16.208977 -1.815907 7.299992
endloop
endfacet
facet normal 0.000000 0.000000 -1.000000
outer loop
vertex 6.533260 2.702415 7.299992
vertex -16.208977 -1.815907 7.299992
vertex -16.208977 2.702416 7.299992
endloop
endfacet
facet normal 0.000000 0.000000 1.000000
outer loop
vertex 6.533260 -1.815915 57.034527
vertex 6.533260 2.702408 57.034527
vertex -16.208977 2.702409 57.034527
endloop
endfacet
facet normal 0.000000 0.000000 1.000000
outer loop
vertex 6.533260 -1.815915 57.034527
vertex -16.208977 2.702409 57.034527
vertex -16.208977 -1.815914 57.034527
endloop
endfacet
endsolid Exported from Blender-3.1.2
